<svg id="Layer_1" data-name="Layer 1" xmlns="http://www.w3.org/2000/svg" viewBox="0 0 273.42 31.53"><defs><style>.cls-1{fill:none;}.cls-2{fill:#0282c6;}.cls-3,.cls-4{fill:#80c342;}.cls-4{font-size:12px;font-family:ProximaNova-Black, Proxima Nova;font-weight:800;}</style></defs><title>Riverside_Insights_Horiz_CMYK</title><rect class="cls-1" width="273.42" height="31.53"/><path class="cls-2" d="M52.24,16.45H49.35V23h-4V4.5h8.68a6.88,6.88,0,0,1,3.31.76,5.28,5.28,0,0,1,2.16,2.13,6.17,6.17,0,0,1,.76,3.08,5.57,5.57,0,0,1-1.19,3.7A5.13,5.13,0,0,1,56.25,16L60.42,23H55.88Zm3.25-8a2.71,2.71,0,0,0-2-.76H49.35v5.61h4.14a2.71,2.71,0,0,0,2-.76,2.74,2.74,0,0,0,.78-2A2.73,2.73,0,0,0,55.49,8.43Z" transform="translate(0.22 -0.19)"/><path class="cls-2" d="M63.46,7.54a2,2,0,0,1-.62-1.49,2,2,0,0,1,.62-1.47,2.14,2.14,0,0,1,3,0,2,2,0,0,1,.61,1.47,2,2,0,0,1-.61,1.49,2.09,2.09,0,0,1-3,0ZM63.2,9.61h3.53V23H63.2Z" transform="translate(0.22 -0.19)"/><path class="cls-2" d="M68.31,9.61h3.78L75.6,19l3.5-9.34h3.81L77.52,23H73.71Z" transform="translate(0.22 -0.19)"/><path class="cls-2" d="M84.52,12.77a6.82,6.82,0,0,1,6.06-3.49,6.62,6.62,0,0,1,3.51.93,6.34,6.34,0,0,1,2.38,2.61,8.52,8.52,0,0,1,.84,3.85v.78h-10a3.65,3.65,0,0,0,1.2,2.35,3.81,3.81,0,0,0,2.67.93,5.69,5.69,0,0,0,2-.36,4.54,4.54,0,0,0,1.62-1l1.56,2.23a6.66,6.66,0,0,1-2.45,1.31,10.16,10.16,0,0,1-3.08.46,7.68,7.68,0,0,1-3.67-.87,6.55,6.55,0,0,1-2.58-2.48,7.29,7.29,0,0,1-.93-3.72A7.26,7.26,0,0,1,84.52,12.77Zm3.73,0a3.18,3.18,0,0,0-.94,2h6.58A3.05,3.05,0,0,0,90.58,12,3.07,3.07,0,0,0,88.25,12.81Z" transform="translate(0.22 -0.19)"/><path class="cls-2" d="M99.87,9.61h3.53v1.84a6.19,6.19,0,0,1,1.89-1.55,5.11,5.11,0,0,1,2.4-.62v3.28a4.82,4.82,0,0,0-1-.11,4.64,4.64,0,0,0-1.89.45A3.13,3.13,0,0,0,103.4,14v9H99.87Z" transform="translate(0.22 -0.19)"/><path class="cls-2" d="M110.24,18.9a7.17,7.17,0,0,0,2.12,1.28,6.57,6.57,0,0,0,2.53.55,2.61,2.61,0,0,0,1.68-.46,1.51,1.51,0,0,0,.57-1.25,1.15,1.15,0,0,0-.65-1.07,8.61,8.61,0,0,0-2-.64,18.82,18.82,0,0,1-2.67-.64,4.54,4.54,0,0,1-1.83-1.16,3.08,3.08,0,0,1-.78-2.23,3.43,3.43,0,0,1,.65-2,4.43,4.43,0,0,1,1.91-1.46,7.35,7.35,0,0,1,2.94-.54,8.53,8.53,0,0,1,5.43,1.81l-1.42,2.41A5.17,5.17,0,0,0,117,12.39a6,6,0,0,0-2.27-.44,2.71,2.71,0,0,0-1.53.38,1.11,1.11,0,0,0-.58,1,.83.83,0,0,0,.58.78,11,11,0,0,0,2,.54,18.42,18.42,0,0,1,2.68.69,4.56,4.56,0,0,1,1.9,1.3,3.59,3.59,0,0,1,.81,2.47,3.86,3.86,0,0,1-.68,2.22,4.48,4.48,0,0,1-2,1.55,8.07,8.07,0,0,1-3.13.55,10.36,10.36,0,0,1-3.35-.54,7.45,7.45,0,0,1-2.66-1.5Z" transform="translate(0.22 -0.19)"/><path class="cls-2" d="M123.41,7.54a2,2,0,0,1-.63-1.49,2,2,0,0,1,.63-1.47,2.14,2.14,0,0,1,3,0A2,2,0,0,1,127,6.05a2,2,0,0,1-.61,1.49,2.09,2.09,0,0,1-3,0Zm-.27,2.07h3.54V23h-3.54Z" transform="translate(0.22 -0.19)"/><path class="cls-2" d="M139.41,21.32a5.34,5.34,0,0,1-1.85,1.54,5,5,0,0,1-2.29.54,5.8,5.8,0,0,1-3.06-.83,5.64,5.64,0,0,1-2.13-2.43,8.63,8.63,0,0,1-.76-3.79,8.58,8.58,0,0,1,.76-3.74,5.85,5.85,0,0,1,2.12-2.47,5.59,5.59,0,0,1,3.07-.86,5.08,5.08,0,0,1,2.28.53,5.24,5.24,0,0,1,1.86,1.53V4.5H143V23h-3.56Zm0-7.64a3.44,3.44,0,0,0-1.31-1.22,3.53,3.53,0,0,0-1.75-.48,2.94,2.94,0,0,0-2.44,1.21,4.93,4.93,0,0,0-.95,3.17,4.87,4.87,0,0,0,.95,3.13,3,3,0,0,0,2.44,1.22A3.82,3.82,0,0,0,139.41,19Z" transform="translate(0.22 -0.19)"/><path class="cls-2" d="M146.5,12.77a6.82,6.82,0,0,1,6.06-3.49,6.62,6.62,0,0,1,3.51.93,6.25,6.25,0,0,1,2.37,2.61,8.39,8.39,0,0,1,.85,3.85v.78h-10a3.65,3.65,0,0,0,1.2,2.35,3.8,3.8,0,0,0,2.66.93,5.65,5.65,0,0,0,2-.36,4.5,4.5,0,0,0,1.63-1l1.56,2.23a6.74,6.74,0,0,1-2.45,1.31,10.16,10.16,0,0,1-3.08.46,7.68,7.68,0,0,1-3.67-.87,6.48,6.48,0,0,1-2.58-2.48,7.29,7.29,0,0,1-.93-3.72A7.26,7.26,0,0,1,146.5,12.77Zm3.73,0a3.18,3.18,0,0,0-.94,2h6.58a3.19,3.19,0,0,0-.9-2,3.16,3.16,0,0,0-2.41-.87A3.06,3.06,0,0,0,150.23,12.81Z" transform="translate(0.22 -0.19)"/><path class="cls-3" d="M166.79,4.5h4V23h-4Z" transform="translate(0.22 -0.19)"/><path class="cls-3" d="M183.39,14.58a2.67,2.67,0,0,0-.64-2,2.57,2.57,0,0,0-1.83-.6,3.35,3.35,0,0,0-1.77.47,4.19,4.19,0,0,0-1.29,1.18V23h-3.53V9.61h3.53v1.75a6.15,6.15,0,0,1,4.7-2.08,4.32,4.32,0,0,1,3.26,1.14,4.31,4.31,0,0,1,1.1,3.14V23h-3.53Z" transform="translate(0.22 -0.19)"/><path class="cls-3" d="M190.79,18.9a7.11,7.11,0,0,0,2.11,1.28,6.57,6.57,0,0,0,2.53.55,2.61,2.61,0,0,0,1.68-.46,1.51,1.51,0,0,0,.57-1.25A1.14,1.14,0,0,0,197,18a8.66,8.66,0,0,0-2-.64,18.17,18.17,0,0,1-2.67-.64,4.51,4.51,0,0,1-1.84-1.16,3.08,3.08,0,0,1-.78-2.23,3.38,3.38,0,0,1,.66-2,4.4,4.4,0,0,1,1.9-1.46,7.43,7.43,0,0,1,3-.54,8.52,8.52,0,0,1,5.42,1.81l-1.42,2.41a5,5,0,0,0-1.71-1.11,6,6,0,0,0-2.26-.44,2.71,2.71,0,0,0-1.53.38,1.12,1.12,0,0,0-.59,1,.84.84,0,0,0,.59.78,10.87,10.87,0,0,0,2,.54,18.09,18.09,0,0,1,2.68.69,4.59,4.59,0,0,1,1.91,1.3,3.59,3.59,0,0,1,.81,2.47,3.79,3.79,0,0,1-.69,2.22,4.48,4.48,0,0,1-2,1.55,8,8,0,0,1-3.13.55,10.45,10.45,0,0,1-3.35-.54,7.41,7.41,0,0,1-2.65-1.5Z" transform="translate(0.22 -0.19)"/><path class="cls-3" d="M204,7.54a2.06,2.06,0,0,1-.62-1.49A2,2,0,0,1,204,4.58,2.06,2.06,0,0,1,205.44,4a2,2,0,0,1,1.5.61,2,2,0,0,1,.61,1.47,2,2,0,0,1-.61,1.49,2,2,0,0,1-1.5.63A2,2,0,0,1,204,7.54Zm-.26,2.07h3.53V23h-3.53Z" transform="translate(0.22 -0.19)"/><path class="cls-3" d="M212,24.13a5.36,5.36,0,0,0,4.2,1.66,4.1,4.1,0,0,0,2.6-.85,3.24,3.24,0,0,0,1.1-2.73V20.85a6,6,0,0,1-1.87,1.55,4.81,4.81,0,0,1-2.28.56,6,6,0,0,1-3-.79,5.41,5.41,0,0,1-2.11-2.34,8.29,8.29,0,0,1-.77-3.71,8.24,8.24,0,0,1,.77-3.69,5.54,5.54,0,0,1,2.1-2.35,5.86,5.86,0,0,1,3.05-.8,4.9,4.9,0,0,1,2.28.53,5.54,5.54,0,0,1,1.87,1.53V9.61h3.56V22.12q0,3.48-2.13,4.93a8.94,8.94,0,0,1-5.13,1.44,10.5,10.5,0,0,1-3.16-.43,7.72,7.72,0,0,1-2.62-1.44Zm7.9-10.44a3.72,3.72,0,0,0-3-1.71,3,3,0,0,0-2.46,1.12,4.51,4.51,0,0,0-.94,3,4.55,4.55,0,0,0,.94,3,3,3,0,0,0,2.46,1.12,3.33,3.33,0,0,0,1.72-.5,3.58,3.58,0,0,0,1.31-1.21Z" transform="translate(0.22 -0.19)"/><path class="cls-3" d="M236.08,14.52a2.56,2.56,0,0,0-.64-2,2.69,2.69,0,0,0-1.86-.57,3.36,3.36,0,0,0-1.75.47,4.27,4.27,0,0,0-1.31,1.18V23H227V4.5h3.53v6.86a6.07,6.07,0,0,1,2-1.47,6.16,6.16,0,0,1,2.77-.61,4.43,4.43,0,0,1,3.27,1.11,4.24,4.24,0,0,1,1.09,3.11V23h-3.53Z" transform="translate(0.22 -0.19)"/><path class="cls-3" d="M244.79,22.42a3.85,3.85,0,0,1-1-2.83V12.31h-2.22V9.61h2.22V5.94h3.56V9.61h2.73v2.7h-2.73v6.75a1.92,1.92,0,0,0,.34,1.18,1,1,0,0,0,.89.47,2.13,2.13,0,0,0,.72-.12,1.23,1.23,0,0,0,.5-.27l.75,2.34a4.8,4.8,0,0,1-2.95.74A3.77,3.77,0,0,1,244.79,22.42Z" transform="translate(0.22 -0.19)"/><path class="cls-3" d="M252.88,18.9A7.11,7.11,0,0,0,255,20.18a6.57,6.57,0,0,0,2.53.55,2.61,2.61,0,0,0,1.68-.46,1.51,1.51,0,0,0,.57-1.25,1.15,1.15,0,0,0-.65-1.07,8.66,8.66,0,0,0-2-.64,18.17,18.17,0,0,1-2.67-.64,4.51,4.51,0,0,1-1.84-1.16,3.08,3.08,0,0,1-.78-2.23,3.38,3.38,0,0,1,.66-2,4.4,4.4,0,0,1,1.9-1.46,7.43,7.43,0,0,1,3-.54,8.52,8.52,0,0,1,5.42,1.81L261.3,13.5a5,5,0,0,0-1.71-1.11,6,6,0,0,0-2.26-.44,2.71,2.71,0,0,0-1.53.38,1.12,1.12,0,0,0-.59,1,.84.84,0,0,0,.59.78,10.87,10.87,0,0,0,2,.54,18.09,18.09,0,0,1,2.68.69,4.59,4.59,0,0,1,1.91,1.3,3.59,3.59,0,0,1,.81,2.47,3.79,3.79,0,0,1-.69,2.22,4.48,4.48,0,0,1-2,1.55,8,8,0,0,1-3.13.55,10.45,10.45,0,0,1-3.35-.54,7.41,7.41,0,0,1-2.65-1.5Z" transform="translate(0.22 -0.19)"/><path class="cls-2" d="M27.07,19.94a8.76,8.76,0,0,0,4.39,4.4,2,2,0,0,1,1,1.06l0,0a12.81,12.81,0,0,0-5.63-6c.08.21.15.42.24.62m-8-2a12.3,12.3,0,0,0-3.67,1c-.27.12-.53.26-.78.39a12.84,12.84,0,0,0-5.49,5.73c0,.09-.09.17-.13.26H9A2,2,0,0,0,9,27a2,2,0,0,0,2.66,1l.09-.05v0h0a1.93,1.93,0,0,0,.95-1,8.85,8.85,0,0,1,4.4-4.38,6,6,0,0,1,.59-.23,8.83,8.83,0,0,1,6.1,0c-.13-.25-.27-.5-.39-.76a13.11,13.11,0,0,1-1-3.71,14.89,14.89,0,0,0-1.64-.11,12.59,12.59,0,0,0-1.61.12m-4.48-4.71c-.07-.18-.13-.36-.22-.54-1.83-3.93-4.43-4-5.18-5.06a12.73,12.73,0,0,0,5.4,5.6M28.79,5.57A8.87,8.87,0,0,1,24.39,10c-.18.08-.37.14-.55.21a8.74,8.74,0,0,1-6.17,0c.14.27.29.54.41.82a12.8,12.8,0,0,1,1.05,3.65,12.7,12.7,0,0,0,3.26,0,12.55,12.55,0,0,0,3.66-1c.28-.13.54-.27.8-.41,3.72-2,8.08-7.6,4.39-8.72a1.8,1.8,0,0,0-.6-.1,2.05,2.05,0,0,0-1.85,1.17m-11-1a3.13,3.13,0,1,0,3.13-3.13,3.13,3.13,0,0,0-3.13,3.13M17.71,28a3.12,3.12,0,1,0,3.12-3.12A3.12,3.12,0,0,0,17.71,28" transform="translate(0.22 -0.19)"/><path class="cls-3" d="M17.09,22.6A8.85,8.85,0,0,0,12.69,27a1.93,1.93,0,0,1-.95,1v0a12.78,12.78,0,0,0,5.94-5.59,6,6,0,0,0-.59.23m9-9a12.61,12.61,0,0,1-3.67,1,12.47,12.47,0,0,0,0,3.23,12.79,12.79,0,0,0,1,3.71c.12.26.25.51.39.76,1.23,2.3,4.41,5.57,6.69,5.78h.45a1.78,1.78,0,0,0,1.36-.85,2,2,0,0,0-.83-2.95,8.76,8.76,0,0,1-4.39-4.4,6.62,6.62,0,0,1-.24-.62,8.82,8.82,0,0,1,0-6.1l-.8.41M6,16.3a3.12,3.12,0,1,0,3.12-3.12A3.12,3.12,0,0,0,6,16.3m23.3,0a3.12,3.12,0,1,0,3.12-3.12,3.12,3.12,0,0,0-3.12,3.12m-5.43-6.13c.18-.07.37-.13.55-.21,4-1.79,4-4.44,5.05-5.18a12.87,12.87,0,0,0-5.6,5.39M9,7.2a2,2,0,0,0,1,1.06,8.79,8.79,0,0,1,4.38,4.39c.08.18.15.36.22.54a8.8,8.8,0,0,1,0,6.13c.25-.13.51-.27.78-.39a12.3,12.3,0,0,1,3.67-1,12.63,12.63,0,0,0,0-3.25,12.78,12.78,0,0,0-1-3.65c-.12-.28-.27-.55-.41-.82a13,13,0,0,0-6-5.59A2,2,0,0,0,9,7.2" transform="translate(0.22 -0.19)"/><text class="cls-4" transform="translate(262.3 14)">®</text></svg>