<svg xmlns="http://www.w3.org/2000/svg" viewBox="0 0 227.25 40">
  <defs>
    <style>.cls-1{fill:#fff;}.cls-2{fill:#73bfd0;}.cls-3{fill:#f4a957;}.cls-4{fill:#fd6;}.cls-5{fill:#d85a5c;}</style>
  </defs>
  <title>Artboard 1</title>
  <g id="Layer_1" data-name="Layer 1">
    <path class="cls-1" d="M.76,16.92H8.21a13.23,13.23,0,0,1,4.81.85,11.38,11.38,0,0,1,3.77,2.35,10.47,10.47,0,0,1,2.45,3.53,11.12,11.12,0,0,1,.86,4.4v.06a11.23,11.23,0,0,1-.86,4.41,10.42,10.42,0,0,1-2.45,3.55A11.57,11.57,0,0,1,13,38.44a13,13,0,0,1-4.81.86H.76ZM8.21,37.8a11.28,11.28,0,0,0,4.22-.75A9.48,9.48,0,0,0,15.63,35a9.15,9.15,0,0,0,2-3,9.81,9.81,0,0,0,.72-3.77v-.06a9.84,9.84,0,0,0-.72-3.75,9.28,9.28,0,0,0-2-3.08,9.54,9.54,0,0,0-3.2-2.08,11.07,11.07,0,0,0-4.22-.77H2.43V37.8Z"/>
    <path class="cls-1" d="M26.57,23.53h1.12L35,39.31H33.71l-2-4.39H22.47l-2,4.39H19.27Zm4.66,10.34L27.11,24.8,23,33.87Z"/>
    <path class="cls-1" d="M37.49,24.69H32V23.64H44.12v1.05H38.66V39.31H37.49Z"/>
    <path class="cls-1" d="M48.46,23.53h1.12l7.3,15.78H55.6l-2-4.39H44.36l-2,4.39H41.16Zm4.66,10.34L49,24.8l-4.14,9.07Z"/>
    <path class="cls-1" d="M58.28,16.92h1.57l9,13.24,9-13.24h1.57V39.31H77.72V19.87L68.86,32.75h-.13L59.88,19.87V39.31h-1.6Z"/>
    <path class="cls-1" d="M88.43,23.53h1.12l7.3,15.78H95.57l-2-4.39H84.33l-2,4.39H81.13Zm4.66,10.34L89,24.8l-4.14,9.07Z"/>
    <path class="cls-1" d="M97.92,23.64H99l10.81,13.63V23.64h1.12V39.31h-.87L99,25.38V39.31H97.92Z"/>
    <path class="cls-1" d="M119.32,23.53h1.12l7.3,15.78h-1.28l-2-4.39h-9.24l-2,4.39H112ZM124,33.87l-4.12-9.07-4.14,9.07Z"/>
    <path class="cls-1" d="M136,39.58a8.26,8.26,0,0,1-3.32-.64,7.22,7.22,0,0,1-2.47-1.74,7.6,7.6,0,0,1-1.54-2.56,9,9,0,0,1-.54-3.12v0a8.64,8.64,0,0,1,.55-3.06,7.91,7.91,0,0,1,1.57-2.58A7.68,7.68,0,0,1,132.68,24a7.4,7.4,0,0,1,3.18-.67,10.55,10.55,0,0,1,1.76.13,7.44,7.44,0,0,1,1.48.4,8.24,8.24,0,0,1,1.3.65,10,10,0,0,1,1.2.87l-.76.87A8.5,8.5,0,0,0,138.74,25a7.08,7.08,0,0,0-2.94-.54,6.07,6.07,0,0,0-2.62.56,6.35,6.35,0,0,0-2,1.52,6.86,6.86,0,0,0-1.33,2.24,7.68,7.68,0,0,0-.47,2.68v0a8.38,8.38,0,0,0,.46,2.82,6.34,6.34,0,0,0,1.33,2.23A6.21,6.21,0,0,0,133.23,38a7,7,0,0,0,2.81.54,7.39,7.39,0,0,0,1.46-.14,8.39,8.39,0,0,0,2.55-1,6.9,6.9,0,0,0,1-.68V32.26h-5.24V31.21h6.36v6a10.51,10.51,0,0,1-2.65,1.64A8.51,8.51,0,0,1,136,39.58Z"/>
    <path class="cls-1" d="M144.12,23.64h11.15v1.05h-10v6.2h9v1.05h-9v6.31h10.1v1.05H144.12Z"/>
    <path class="cls-1" d="M156.88,23.64h6.58a7.41,7.41,0,0,1,2.57.41,5,5,0,0,1,1.84,1.13,4,4,0,0,1,.87,1.31,4.12,4.12,0,0,1,.31,1.6v0a4.25,4.25,0,0,1-.35,1.76,4,4,0,0,1-1,1.33,5,5,0,0,1-1.46.91,7.37,7.37,0,0,1-1.82.48l5.17,6.69h-1.48l-5-6.49H158v6.49h-1.16Zm6.45,8.13a6.43,6.43,0,0,0,1.82-.25,4.4,4.4,0,0,0,1.44-.71,3.36,3.36,0,0,0,1-1.12,3.22,3.22,0,0,0,.35-1.52v0a3,3,0,0,0-1.18-2.51,5.28,5.28,0,0,0-3.32-.92H158v7.07Z"/>
  </g>
  <g id="Layer_3" data-name="Layer 3">
    <rect class="cls-2" x="184.75" y="21.71" width="7" height="18"/>
    <rect class="cls-3" x="195.75" y="5.71" width="7" height="34"/>
    <rect class="cls-4" x="206.75" y="13.71" width="7" height="26"/>
    <rect class="cls-5" x="217.75" y="0.71" width="7" height="39"/>
  </g>
</svg>