<?xml version="1.0" encoding="UTF-8"?>
<svg width="500px" height="76px" viewBox="0 0 500 76" version="1.1" xmlns="http://www.w3.org/2000/svg" xmlns:xlink="http://www.w3.org/1999/xlink">
    <!-- Generator: Sketch 50.2 (55047) - http://www.bohemiancoding.com/sketch -->
    <title>DM logo_Signin_FNL@1x</title>
    <desc>Created with Sketch.</desc>
    <defs>
        <linearGradient x1="50%" y1="0%" x2="50%" y2="100%" id="linearGradient-1">
            <stop stop-color="#FFFFFF" stop-opacity="0" offset="0%"></stop>
            <stop stop-color="#FFFFFF" stop-opacity="0.2" offset="100%"></stop>
        </linearGradient>
        <linearGradient x1="42632%" y1="5098%" x2="42632%" y2="7102%" id="linearGradient-2">
            <stop stop-color="#FFFFFF" stop-opacity="0" offset="0%"></stop>
            <stop stop-color="#FFFFFF" stop-opacity="0.2" offset="100%"></stop>
        </linearGradient>
        <linearGradient x1="44447%" y1="5098%" x2="44447%" y2="7102%" id="linearGradient-3">
            <stop stop-color="#FFFFFF" stop-opacity="0" offset="0%"></stop>
            <stop stop-color="#FFFFFF" stop-opacity="0.2" offset="100%"></stop>
        </linearGradient>
        <linearGradient x1="46263%" y1="5098%" x2="46263%" y2="7102%" id="linearGradient-4">
            <stop stop-color="#FFFFFF" stop-opacity="0" offset="0%"></stop>
            <stop stop-color="#FFFFFF" stop-opacity="0.2" offset="100%"></stop>
        </linearGradient>
    </defs>
    <g id="LOG-IN-" stroke="none" stroke-width="1" fill="none" fill-rule="evenodd">
        <g id="Reset-password-1" transform="translate(-371.000000, -113.000000)" fill-rule="nonzero">
            <g id="DM-logo_Signin_FNL" transform="translate(371.000000, 113.000000)">
                <g id="Layer_1" transform="translate(0.000000, 22.132797)" fill="#000000">
                    <path d="M0.914969268,0.949094567 L18.0014884,0.949094567 C21.7680668,0.907547976 25.509436,1.56932903 29.0343155,2.90060362 C32.244191,4.11515822 35.1835139,5.95244158 37.6839668,8.30724346 C40.0960514,10.5939956 42.0088181,13.3572709 43.3014526,16.4225352 C44.6379082,19.6230732 45.3111749,23.0625625 45.2803396,26.531992 L45.2803396,26.6599598 C45.3095959,30.1395965 44.6364748,33.5892243 43.3014526,36.8014085 C42.0201064,39.8826473 40.1103149,42.6613892 37.694606,44.9593561 C35.1888667,47.3151348 32.2515352,49.1620375 29.0449547,50.3979879 C25.5252067,51.7511952 21.7816726,52.4242143 18.0121276,52.3814889 L0.914969268,52.3814889 L0.914969268,0.949094567 Z M18.0014884,48.9370221 C21.301385,48.987484 24.5804458,48.404709 27.6618616,47.2201207 C30.3983172,46.1573121 32.8918438,44.5503341 34.9922549,42.4959759 C37.0009379,40.4993451 38.5860285,38.1161655 39.6522147,35.4897384 C40.7664475,32.7369354 41.326877,29.7905386 41.3012872,26.8199195 L41.3012872,26.6599598 C41.3190665,23.7038794 40.7588224,20.7729484 39.6522147,18.0327968 C38.5875688,15.3835698 37.0029121,12.975658 34.9922549,10.9519115 C32.8944693,8.88116355 30.401202,7.2562171 27.6618616,6.17444668 C24.5806757,4.95725389 21.2917134,4.35589047 17.98021,4.40422535 L4.72379482,4.40422535 L4.72379482,48.9476861 L18.0014884,48.9370221 Z" id="Shape"></path>
                    <path d="M60.1007139,16.1239437 L62.6647557,16.1239437 L79.4001819,52.3814889 L76.4744081,52.3814889 L71.9102009,42.2933602 L50.7063201,42.2933602 L46.142113,52.3814889 L43.3652876,52.3814889 L60.1007139,16.1239437 Z M70.7398914,39.8939638 L61.3242193,19.0565392 L51.8340729,39.8939638 L70.7398914,39.8939638 Z" id="Shape"></path>
                    <polygon id="Shape" points="85.1134202 18.8006036 72.6230258 18.8006036 72.6230258 16.3798793 100.348722 16.3798793 100.348722 18.8006036 87.8157713 18.8006036 87.8157713 52.4028169 85.1134202 52.4028169"></polygon>
                    <path d="M110.306993,16.1239437 L112.871034,16.1239437 L129.606461,52.3814889 L126.680687,52.3814889 L122.11648,42.2933602 L100.912599,42.2933602 L96.3483917,52.3814889 L93.5715664,52.3814889 L110.306993,16.1239437 Z M120.94617,39.8939638 L111.498581,19.0565392 L102.040352,39.8939638 L120.94617,39.8939638 Z" id="Shape"></path>
                    <polygon id="Shape" points="132.819492 0.949094567 136.415534 0.949094567 157.023621 31.3841046 177.674265 0.949094567 181.270307 0.949094567 181.270307 52.4028169 177.461481 52.4028169 177.461481 7.71006036 157.087456 37.3239437 156.789559 37.3239437 136.479369 7.71006036 136.479369 52.4028169 132.808853 52.4028169"></polygon>
                    <path d="M201.974146,16.1239437 L204.538188,16.1239437 L221.273614,52.3814889 L218.34784,52.3814889 L213.783633,42.2933602 L192.569113,42.2933602 L188.004906,52.3814889 L185.228081,52.3814889 L201.974146,16.1239437 Z M212.613324,39.8939638 L203.208291,19.0565392 L193.707505,39.8939638 L212.613324,39.8939638 Z" id="Shape"></path>
                    <polygon id="Shape" points="223.741903 16.3798793 226.252749 16.3798793 251.08459 47.721328 251.08459 16.3798793 253.648632 16.3798793 253.648632 52.4028169 251.616549 52.4028169 226.305945 20.4108652 226.305945 52.4028169 223.741903 52.4028169"></polygon>
                    <path d="M272.820429,16.1239437 L275.384471,16.1239437 L292.119897,52.3814889 L289.194124,52.3814889 L284.629916,42.2933602 L263.426036,42.2933602 L258.861829,52.3814889 L256.085003,52.3814889 L272.820429,16.1239437 Z M283.459607,39.8939638 L274.012017,19.0565392 L264.511232,39.8939638 L283.459607,39.8939638 Z" id="Shape"></path>
                    <path d="M311.068273,53.021328 C308.452147,53.067476 305.854837,52.5700407 303.439982,51.5603622 C301.290289,50.6466481 299.357756,49.28745 297.769301,47.5720322 C296.210982,45.8644656 295.006714,43.863547 294.226455,41.6855131 C293.394696,39.3852526 292.976835,36.9552842 292.99231,34.5086519 L292.99231,34.4020121 C292.98375,32.0027036 293.409098,29.6217035 294.247733,27.3744467 C295.069038,25.1731927 296.308314,23.1524106 297.896971,21.4239437 C299.477636,19.6909495 301.387419,18.2915274 303.514457,17.3076459 C305.800046,16.2592275 308.288912,15.7311589 310.802293,15.7613682 C312.152631,15.7514792 313.501425,15.8549257 314.834541,16.0706237 C315.994771,16.2615671 317.132142,16.5724824 318.228439,16.9983903 C319.263314,17.407233 320.260171,17.9068237 321.207409,18.4913481 C322.170331,19.0910403 323.087791,19.7611361 323.952317,20.4961771 L322.207492,22.501006 C320.76735,21.2436219 319.150651,20.205228 317.409222,19.4191147 C315.27432,18.5301194 312.97462,18.1083731 310.663984,18.1820926 C308.590205,18.1546985 306.536502,18.5919002 304.652849,19.4617706 C302.865108,20.2963202 301.265225,21.4863317 299.950332,22.9595573 C298.59188,24.4565901 297.533543,26.2016682 296.833053,28.0995976 C296.115084,30.0743049 295.754787,32.1616789 295.769135,34.2633803 L295.769135,34.3700201 C295.751834,36.5728083 296.111693,38.7622445 296.833053,40.8430584 C297.485417,42.7495597 298.525121,44.4997528 299.886497,45.9830986 C301.248945,47.4414706 302.901771,48.596787 304.737962,49.3742455 C306.779578,50.2258048 308.974259,50.6468883 311.185304,50.6112676 C312.307045,50.6122269 313.426107,50.5014887 314.526005,50.2806841 C316.583467,49.8692825 318.560029,49.123642 320.377553,48.0732394 C321.173276,47.6171841 321.92795,47.0926755 322.633059,46.5056338 L322.633059,36.1935614 L310.600149,36.1935614 L310.600149,33.772837 L325.175822,33.772837 L325.175822,47.6360161 C323.346056,49.1909642 321.294904,50.4633431 319.090213,51.4110664 C316.559707,52.5096816 313.825705,53.0584838 311.068273,53.021328 Z" id="Shape"></path>
                    <polygon id="Shape" points="329.697473 16.3798793 355.231499 16.3798793 355.231499 18.8006036 332.367906 18.8006036 332.367906 33.0583501 352.954715 33.0583501 352.954715 35.4790744 332.367906 35.4790744 332.367906 49.9820926 355.518756 49.9820926 355.518756 52.4028169 329.697473 52.4028169"></polygon>
                    <path d="M358.96585,16.3798793 L374.062843,16.3798793 C376.071545,16.344515 378.070635,16.6658372 379.967586,17.3289738 C381.55887,17.8740298 383.011546,18.7622282 384.223257,19.9309859 C385.073307,20.7976694 385.745612,21.8229705 386.202144,22.9488934 C386.682188,24.1153223 386.924553,25.3662301 386.914969,26.6279678 L386.914969,26.7239437 C386.938691,28.112701 386.666662,29.4905612 386.117031,30.7655936 C385.602257,31.9276145 384.852318,32.9698097 383.914721,33.8261569 C382.934181,34.7274679 381.803471,35.4493446 380.574019,35.9589537 C379.231446,36.491952 377.826274,36.8503359 376.392823,37.0253521 L388.223588,52.4028169 L384.84033,52.4028169 L373.435131,37.4839034 L361.625644,37.4839034 L361.625644,52.4134809 L358.96585,52.4134809 L358.96585,16.3798793 Z M373.754307,35.0631791 C375.167871,35.0767869 376.576034,34.8864392 377.935503,34.4979879 C379.128162,34.1653475 380.249705,33.6159199 381.244288,32.8770624 C382.152408,32.1887197 382.897239,31.3074065 383.425319,30.2963783 C383.971816,29.2169051 384.2458,28.0195467 384.223257,26.8092555 L384.223257,26.6599598 C384.314438,24.409768 383.310979,22.2550527 381.531545,20.8800805 C379.737071,19.458216 377.194307,18.7472837 373.903255,18.7472837 L361.625644,18.7472837 L361.625644,35.0631791 L373.754307,35.0631791 Z" id="Shape"></path>
                </g>
                <g id="Layer_3" transform="translate(426.559356, 0.000000)">
                    <rect id="Rectangle-path" fill="#73BFD0" x="0.702475724" y="40.6718086" width="13.836643" height="34.7781131"></rect>
                    <rect id="Rectangle-path" fill="#F4A957" x="20.0312017" y="9.75911022" width="13.836643" height="65.6908115"></rect>
                    <rect id="Rectangle-path" fill="#FFDD66" x="39.3492841" y="25.2101498" width="13.836643" height="50.239772"></rect>
                    <rect id="Rectangle-path" fill="#D85A5C" x="58.6780101" y="0.318578135" width="13.836643" height="75.1313436"></rect>
                </g>
                <g id="Layer_4" transform="translate(426.559356, 54.325956)">
                    <rect id="Rectangle-path" fill="url(#linearGradient-1)" x="0.702475724" y="3.97933053" width="13.836643" height="17.1227364"></rect>
                    <rect id="Rectangle-path" fill="url(#linearGradient-2)" x="20.0312017" y="0.0246936162" width="13.836643" height="21.0773733"></rect>
                    <rect id="Rectangle-path" fill="url(#linearGradient-3)" x="39.3492841" y="0.0246936162" width="13.836643" height="21.0773733"></rect>
                    <rect id="Rectangle-path" fill="url(#linearGradient-4)" x="58.6780101" y="0.0246936162" width="13.836643" height="21.0773733"></rect>
                </g>
            </g>
        </g>
    </g>
</svg>