<?xml version="1.0" encoding="UTF-8"?>
<svg width="24px" height="17px" viewBox="0 0 24 17" version="1.1" xmlns="http://www.w3.org/2000/svg" xmlns:xlink="http://www.w3.org/1999/xlink">
    <!-- Generator: Sketch 55.1 (78136) - https://sketchapp.com -->
    <title>Combined Shape</title>
    <desc>Created with Sketch.</desc>
    <g id="Symbols" stroke="none" stroke-width="1" fill="none" fill-rule="evenodd">
        <g id="MODULE-STUDENT-ROSTER-DOMAIN-LEVEL-DISTRICT" transform="translate(-49.000000, -85.000000)" fill="#3D3F3F">
            <g id="ROSTER">
                <path d="M66.2056901,95.3427682 L66.2056901,92.0359557 C66.2056901,91.8978845 66.3176189,91.7859557 66.4556901,91.7859557 C66.5097827,91.7859557 66.5624161,91.8035002 66.6056901,91.8359557 L72.8481068,96.5177682 C72.9585637,96.6006109 72.9809495,96.7573113 72.8981068,96.8677682 C72.8838932,96.8867196 72.8670582,96.9035547 72.8481068,96.9177682 L66.6056901,101.599581 C66.4952332,101.682423 66.3385328,101.660038 66.2556901,101.549581 C66.2232346,101.506307 66.2056901,101.453673 66.2056901,101.399581 L66.2056901,98.0927682 L49.8891602,98.0927682 C49.8201246,98.0927682 49.7576246,98.064786 49.7123835,98.0195449 C49.6671424,97.9743038 49.6391602,97.9118038 49.6391602,97.8427682 L49.6391602,85.3427682 C49.6391602,85.204697 49.751089,85.0927682 49.8891602,85.0927682 L52.1391602,85.0927682 C52.2772313,85.0927682 52.3891602,85.204697 52.3891602,85.3427682 L52.3891602,95.3427682 L66.2056901,95.3427682 Z" id="Combined-Shape"></path>
            </g>
        </g>
    </g>
</svg>