<?xml version="1.0" encoding="UTF-8"?>
<svg width="16px" height="16px" viewBox="0 0 16 16" version="1.1" xmlns="http://www.w3.org/2000/svg" xmlns:xlink="http://www.w3.org/1999/xlink">
    <!-- Generator: Sketch 55.2 (78181) - https://sketchapp.com -->
    <title>icon-reset-white</title>
    <desc>Created with Sketch.</desc>
    <defs>
        <polygon id="path-1" points="8.52734552e-06 0 13.7323093 0 13.7323093 13.8332731 8.52734552e-06 13.8332731"></polygon>
    </defs>
    <g id="icon-reset-white" stroke="none" stroke-width="1" fill="none" fill-rule="evenodd">
        <g id="Group-3" transform="translate(8.000000, 9.002936) rotate(-45.000000) translate(-8.000000, -9.002936) translate(1.000000, 2.002936)">
            <mask id="mask-2" fill="white">
                <use xlink:href="#path-1"></use>
            </mask>
            <g id="Clip-2"></g>
            <path d="M13.568806,8.22308983 L11.8638485,7.8148858 C11.7484735,7.7872572 11.6343777,7.85973964 11.6068343,7.97511462 C11.6066638,7.97579681 11.6065359,7.97656427 11.6063653,7.97724646 C11.0793327,10.1783249 9.10286459,11.6605481 6.93175979,11.6543231 C6.90664676,11.6541099 6.88149109,11.6539394 6.85642069,11.6533425 C6.85228493,11.6532572 6.84814917,11.6531719 6.84397077,11.6530867 C4.27792195,11.5859338 2.20803674,9.49187357 2.17917167,6.91661522 C2.20850574,4.29897597 4.34665236,2.17843832 6.97111349,2.17843832 C8.34781079,2.17843832 9.5898613,2.7626894 10.4645964,3.69545309 L8.97154347,5.18854865 C8.79609334,5.36399879 8.92033676,5.6639908 9.16848252,5.6639908 L13.445799,5.6639908 C13.599675,5.6639908 13.7243448,5.53932101 13.7243448,5.3854877 L13.7243448,1.10812855 C13.7243448,0.859982795 13.4243101,0.735696735 13.24886,0.911146869 L12.0052319,2.15481758 C10.7353823,0.827962613 8.94834909,0 6.97111349,0 C3.16365371,0 0.0598704929,3.06839474 0.00137290263,6.86216812 L8.52734552e-06,6.86216812 C8.52734552e-06,6.880374 0.000562804804,6.89845198 0.000690714987,6.91661522 C0.000562804804,6.93482111 8.52734552e-06,6.95285644 8.52734552e-06,6.97110496 L8.52734552e-06,6.97831057 C8.52734552e-06,6.98389598 0.00124499245,6.98909766 0.00167135972,6.99451252 C0.0619596925,10.2125195 2.31343473,12.9037924 5.32345979,13.6360356 L5.3223086,13.6408535 C5.86319812,13.7703413 6.4047272,13.8322924 6.93811266,13.8328467 C6.94915557,13.8328894 6.96011321,13.8332731 6.97111349,13.8332731 L6.97831909,13.8332731 C6.98045093,13.8332731 6.98241222,13.8326762 6.98454406,13.8325909 C10.1192389,13.814854 12.9631939,11.6660909 13.7249417,8.48445297 C13.725496,8.48210795 13.7260502,8.47980557 13.7266045,8.47746055 C13.7536362,8.36396158 13.6822197,8.25024943 13.568806,8.22308983" id="Fill-1" fill="#FFFFFF" mask="url(#mask-2)"></path>
        </g>
    </g>
</svg>