<?xml version="1.0" encoding="UTF-8"?>
<svg width="16px" height="16px" viewBox="0 0 16 16" version="1.1" xmlns="http://www.w3.org/2000/svg" xmlns:xlink="http://www.w3.org/1999/xlink">
    <!-- Generator: Sketch 53.2 (72643) - https://sketchapp.com -->
    <title>icon-close-white</title>
    <desc>Created with Sketch.</desc>
    <g id="icon-close-white" stroke="none" stroke-width="1" fill="none" fill-rule="evenodd">
        <path d="M9.88561808,8 L15.6094757,13.7238576 C16.1301748,14.2445567 16.1301748,15.0887767 15.6094757,15.6094757 C15.0887767,16.1301748 14.2445567,16.1301748 13.7238576,15.6094757 L8,9.88561808 L2.27614237,15.6094757 C1.75544332,16.1301748 0.911223347,16.1301748 0.390524292,15.6094757 C-0.130174764,15.0887767 -0.130174764,14.2445567 0.390524292,13.7238576 L6.11438192,8 L0.390524292,2.27614237 C-0.130174764,1.75544332 -0.130174764,0.911223347 0.390524292,0.390524292 C0.911223347,-0.130174764 1.75544332,-0.130174764 2.27614237,0.390524292 L8,6.11438192 L13.7238576,0.390524292 C14.2445567,-0.130174764 15.0887767,-0.130174764 15.6094757,0.390524292 C16.1301748,0.911223347 16.1301748,1.75544332 15.6094757,2.27614237 L9.88561808,8 Z" id="Combined-Shape" fill="#FFFFFF"></path>
    </g>
</svg>