<svg width="16px" height="16px" viewBox="0 0 16 16" version="1.1" xmlns="http://www.w3.org/2000/svg" xmlns:xlink="http://www.w3.org/1999/xlink"><defs><polygon id="path-1" points="0 16 15.5759036 16 15.5759036 0 0 0"></polygon></defs><g id="icon-print-blue" stroke="none" stroke-width="1" fill="none" fill-rule="evenodd"><g id="Group-8"><path d="M11.860241,4.20240964 L11.860241,0.690351807 C11.860241,0.309089157 11.5511518,0 11.1698892,0 L4.22288193,0 C3.84161928,0 3.53253012,0.309089157 3.53253012,0.690351807 L3.53253012,4.20240964 L11.860241,4.20240964 Z" id="Fill-1" fill="#147CBD"></path><mask id="mask-2" fill="white"><use xlink:href="#path-1"></use></mask><g id="Clip-4"></g><path d="M5.12771084,12.1060241 L10.4096386,12.1060241 L10.4096386,11.5662651 L5.12771084,11.5662651 L5.12771084,12.1060241 Z M5.12771084,13.4168675 L10.4096386,13.4168675 L10.4096386,12.8771084 L5.12771084,12.8771084 L5.12771084,13.4168675 Z M5.12771084,14.7277108 L10.4096386,14.7277108 L10.4096386,14.1879518 L5.12771084,14.1879518 L5.12771084,14.7277108 Z M3.53253012,10.2939759 L3.53253012,15.3096867 C3.53253012,15.6909108 3.84161928,16 4.22288193,16 L11.1698892,16 C11.5511518,16 11.860241,15.6909108 11.860241,15.3096867 L11.860241,10.2939759 L3.53253012,10.2939759 Z" id="Fill-3" fill="#147CBD" mask="url(#mask-2)"></path><path d="M10.3325301,5.66746988 C10.3325301,5.94428916 10.1081446,6.1686747 9.8313253,6.1686747 C9.55450602,6.1686747 9.33012048,5.94428916 9.33012048,5.66746988 C9.33012048,5.3906506 9.55450602,5.16626506 9.8313253,5.16626506 C10.1081446,5.16626506 10.3325301,5.3906506 10.3325301,5.66746988" id="Fill-5" fill="#147CBD" mask="url(#mask-2)"></path><path d="M11.9518072,5.66746988 C11.9518072,5.94428916 11.7274217,6.1686747 11.4506024,6.1686747 C11.1737831,6.1686747 10.9493976,5.94428916 10.9493976,5.66746988 C10.9493976,5.3906506 11.1737831,5.16626506 11.4506024,5.16626506 C11.7274217,5.16626506 11.9518072,5.3906506 11.9518072,5.66746988" id="Fill-6" fill="#147CBD" mask="url(#mask-2)"></path><path d="M14.1879518,6.1686747 C13.9111325,6.1686747 13.686747,5.94428916 13.686747,5.66746988 C13.686747,5.3906506 13.9111325,5.16626506 14.1879518,5.16626506 C14.4647711,5.16626506 14.6891566,5.3906506 14.6891566,5.66746988 C14.6891566,5.94428916 14.4647711,6.1686747 14.1879518,6.1686747 M14.6262747,4.27951807 L12.8578313,4.27951807 L12.8578313,6.70681446 C12.8578313,6.98452048 12.6326747,7.20963855 12.3549687,7.20963855 L3.22089639,7.20963855 C2.94319036,7.20963855 2.71807229,6.98452048 2.71807229,6.70681446 L2.71807229,4.27951807 L0.949628916,4.27951807 C0.425137349,4.27951807 0,4.70465542 0,5.22914699 L0,11.8118169 C0,12.3363084 0.425137349,12.7614458 0.949628916,12.7614458 L2.71807229,12.7614458 L2.71807229,9.94860723 C2.71807229,9.6709012 2.94319036,9.44578313 3.22089639,9.44578313 L12.3549687,9.44578313 C12.6326747,9.44578313 12.8578313,9.6709012 12.8578313,9.94860723 L12.8578313,12.7614458 L14.6262747,12.7614458 C15.1507663,12.7614458 15.5759036,12.3363084 15.5759036,11.8118169 L15.5759036,5.22914699 C15.5759036,4.70465542 15.1507663,4.27951807 14.6262747,4.27951807" id="Fill-7" fill="#147CBD" mask="url(#mask-2)"></path></g></g></svg>