<?xml version="1.0" encoding="UTF-8"?>
<svg width="20px" height="20px" viewBox="0 0 20 20" version="1.1" xmlns="http://www.w3.org/2000/svg" xmlns:xlink="http://www.w3.org/1999/xlink">
    <!-- Generator: Sketch 58 (84663) - https://sketch.com -->
    <title>icon-download</title>
    <desc>Created with Sketch.</desc>
    <g id="Symbols" stroke="none" stroke-width="1" fill="none" fill-rule="evenodd">
        <g id="modules/class-roster" transform="translate(-431.000000, -35.000000)" fill="#FFFFFF">
            <g id="Group-2" transform="translate(321.000000, 28.590000)">
                <g id="btn-scores-copy" transform="translate(104.000000, 0.000000)">
                    <g id="icons/export-blue" transform="translate(6.000000, 6.000000)">
                        <g id="Group" transform="translate(10.000000, 10.000000) rotate(-180.000000) translate(-10.000000, -10.000000) translate(0.000000, -0.000000)">
                            <path d="M10.3541575,7.52029957 C10.40825,7.52029957 10.4608834,7.53784403 10.5041575,7.57029957 L16.8331896,12.3170737 C16.9436466,12.3999164 16.9660323,12.5566167 16.8831896,12.6670737 C16.8689761,12.6860251 16.852141,12.7028601 16.8331896,12.7170737 L10.5041575,17.4638478 C10.3937005,17.5466905 10.2370002,17.5243047 10.1541575,17.4138478 C10.1217019,17.3705737 10.1041575,17.3179403 10.1041575,17.2638478 L10.1034587,14.2657996 L3.35845866,14.2659984 C3.22038747,14.2659984 3.10845866,14.1540696 3.10845866,14.0159984 L3.10845866,11.018149 C3.10845866,10.8800778 3.22038747,10.768149 3.35845866,10.768149 L10.1034587,10.7677996 L10.1041575,7.77029957 C10.1041575,7.63222838 10.2160863,7.52029957 10.3541575,7.52029957 Z" id="Combined-Shape" transform="translate(10.000000, 12.517083) rotate(-90.000000) translate(-10.000000, -12.517083) "></path>
                            <path d="M18.3110318,-1.22568622e-13 L18.3110318,9.4385033 C18.3110318,9.82175899 18.0004625,10.1316675 17.6172069,10.1316675 L2.38213236,10.1316675 C1.99887666,10.1316675 1.6883074,9.82175899 1.6883074,9.4385033 L1.6883074,-1.22568622e-13 L0,-1.22568622e-13 L0,10.6945959 C0,11.391064 0.564971751,11.9560357 1.26210064,11.9560357 L18.7378994,11.9560357 C19.4350282,11.9560357 20,11.391064 20,10.6945959 L20,-1.22568622e-13 L18.3110318,-1.22568622e-13 Z" id="Fill-1" transform="translate(10.000000, 5.978018) rotate(-180.000000) translate(-10.000000, -5.978018) "></path>
                        </g>
                    </g>
                </g>
            </g>
        </g>
    </g>
</svg>