<?xml version="1.0" encoding="utf-8"?>
<!-- Generator: Adobe Illustrator 24.2.3, SVG Export Plug-In . SVG Version: 6.00 Build 0)  -->
<svg version="1.1" id="Layer_1" xmlns="http://www.w3.org/2000/svg" xmlns:xlink="http://www.w3.org/1999/xlink" x="0px" y="0px"
	 viewBox="0 0 22 18.37" style="enable-background:new 0 0 22 18.37;" xml:space="preserve">
<style type="text/css">
	.st0{fill:none;stroke:#FFFFFF;stroke-miterlimit:10;}
	.st1{fill:#FFFFFF;}
	.st2{font-family:'Arial-BoldMT';}
	.st3{font-size:12px;}
</style>
<path class="st0" d="M19.47,8.66c0,3.28-3.78,5.95-8.44,5.95c-0.53,0-1.05-0.04-1.56-0.1c-0.04,0-0.08-0.01-0.12-0.02
	c-0.01,0-0.06,0.01-0.13,0.05c-2.44,1.24-3.04,1.69-3.38,1.5c-0.11-0.06,0-0.64,0.1-1.17c0.1-0.49,0.2-0.91,0.24-1.13
	c0.03-0.12-0.02-0.22-0.12-0.27c-2.16-0.98-3.48-2.83-3.48-4.81c0-3.28,3.78-5.95,8.44-5.95S19.47,5.37,19.47,8.66z"/>
<text transform="matrix(1 0 0 1 6.2295 9.5209)" class="st1 st2 st3">...</text>
</svg>
