<?xml version="1.0" encoding="UTF-8"?>
<svg width="20px" height="19px" viewBox="0 0 20 19" version="1.1" xmlns="http://www.w3.org/2000/svg" xmlns:xlink="http://www.w3.org/1999/xlink">
    <!-- Generator: Sketch 58 (84663) - https://sketch.com -->
    <title>Group 12</title>
    <desc>Created with Sketch.</desc>
    <defs>
        <polygon id="path-1" points="0 0.396261843 19.3984394 0.396261843 19.3984394 19.1263527 0 19.1263527"></polygon>
    </defs>
    <g id="CogAT" stroke="none" stroke-width="1" fill="none" fill-rule="evenodd">
        <g id="CogAT-DISTRICT-Level" transform="translate(-713.000000, -1149.000000)">
            <g id="module-class-score-comp" transform="translate(32.000000, 1111.000000)">
                <g id="COMPARISON">
                    <g id="btn-scores" transform="translate(675.000000, 32.000000)">
                        <g id="Group-12" transform="translate(6.000000, 5.500000)">
                            <path d="M5.48180198,16.3966088 C5.48180198,16.8095451 5.14684302,17.144504 4.73390679,17.144504 L2.80752496,17.144504 C2.39409831,17.144504 2.05913936,16.8095451 2.05913936,16.3966088 L2.05913936,12.9533485 C2.05913936,12.5399218 2.39409831,12.2049628 2.80752496,12.2049628 L4.73390679,12.2049628 C5.14684302,12.2049628 5.48180198,12.5399218 5.48180198,12.9533485 L5.48180198,16.3966088 Z" id="Fill-1" fill="#FFFFFF"></path>
                            <path d="M9.8400447,16.3966088 C9.8400447,16.8095451 9.50508574,17.144504 9.09214952,17.144504 L7.16576769,17.144504 C6.75234104,17.144504 6.41738208,16.8095451 6.41738208,16.3966088 L6.41738208,8.3227738 C6.41738208,7.90934715 6.75234104,7.57438819 7.16576769,7.57438819 L9.09214952,7.57438819 C9.50508574,7.57438819 9.8400447,7.90934715 9.8400447,8.3227738 L9.8400447,16.3966088 Z" id="Fill-3" fill="#FFFFFF"></path>
                            <path d="M14.1982874,16.3966088 C14.1982874,16.8095451 13.8633285,17.144504 13.4503922,17.144504 L11.5240104,17.144504 C11.1105838,17.144504 10.7756248,16.8095451 10.7756248,16.3966088 L10.7756248,2.25771166 C10.7756248,1.84428501 11.1105838,1.50981647 11.5240104,1.50981647 L13.4503922,1.50981647 C13.8633285,1.50981647 14.1982874,1.84428501 14.1982874,2.25771166 L14.1982874,16.3966088 Z" id="Fill-5" fill="#FFFFFF"></path>
                            <path d="M18.5565301,16.3966088 C18.5565301,16.8095451 18.2215712,17.144504 17.808635,17.144504 L15.8822531,17.144504 C15.4688265,17.144504 15.1338675,16.8095451 15.1338675,16.3966088 L15.1338675,5.65683398 C15.1338675,5.24340732 15.4688265,4.90795794 15.8822531,4.90795794 L17.808635,4.90795794 C18.2215712,4.90795794 18.5565301,5.24340732 18.5565301,5.65683398 L18.5565301,16.3966088 Z" id="Fill-7" fill="#FFFFFF"></path>
                            <g id="Group-11" transform="translate(0.000000, 0.094357)">
                                <mask id="mask-2" fill="white">
                                    <use xlink:href="#path-1"></use>
                                </mask>
                                <g id="Clip-10"></g>
                                <path d="M18.9305758,18.1911159 L0.935482011,18.1911159 L0.935482011,10.6748919 L2.23167019,10.6748919 C2.49012315,10.6748919 2.69904338,10.4654812 2.69904338,10.2075187 C2.69904338,9.94857533 2.49012315,9.7396551 2.23167019,9.7396551 L0.935482011,9.7396551 L0.935482011,8.33606426 L2.23167019,8.33606426 C2.49012315,8.33606426 2.69904338,8.12714404 2.69904338,7.86820065 C2.69904338,7.61023812 2.49012315,7.40082746 2.23167019,7.40082746 L0.935482011,7.40082746 L0.935482011,5.99772705 L3.94471799,5.99772705 C4.20317095,5.99772705 4.4125816,5.7883164 4.4125816,5.52986344 C4.4125816,5.27141048 4.20317095,5.06199983 3.94471799,5.06199983 L0.935482011,5.06199983 L0.935482011,3.65889942 L2.23167019,3.65889942 C2.49012315,3.65889942 2.69904338,3.44948877 2.69904338,3.19103581 C2.69904338,2.93307327 2.49012315,2.72366262 2.23167019,2.72366262 L0.935482011,2.72366262 L0.935482011,1.33184194 L2.23167019,1.33184194 C2.49012315,1.33184194 2.69904338,1.12194086 2.69904338,0.863978327 C2.69904338,0.606015791 2.49012315,0.396114716 2.23167019,0.396114716 L0.482821515,0.396114716 C0.479878977,0.396114716 0.477426861,0.396605139 0.474974746,0.396605139 C0.472522631,0.396605139 0.470070515,0.396114716 0.4676184,0.396114716 C0.209165441,0.396114716 -0.000245211536,0.606015791 -0.000245211536,0.863978327 L-0.000245211536,18.6584891 C-0.000245211536,18.7815853 0.0497779419,18.9022294 0.137073249,18.9895247 C0.223878133,19.0763296 0.344522209,19.1263527 0.4676184,19.1263527 L18.9305758,19.1263527 C19.1890288,19.1263527 19.3984394,18.9169421 19.3984394,18.6584891 C19.3984394,18.4005266 19.1890288,18.1911159 18.9305758,18.1911159" id="Fill-9" fill="#FFFFFF" mask="url(#mask-2)"></path>
                            </g>
                        </g>
                    </g>
                </g>
            </g>
        </g>
    </g>
</svg>