<?xml version="1.0" encoding="UTF-8"?>
<svg width="17px" height="16px" viewBox="0 0 17 16" version="1.1" xmlns="http://www.w3.org/2000/svg" xmlns:xlink="http://www.w3.org/1999/xlink">
    <!-- Generator: Sketch 55.2 (78181) - https://sketchapp.com -->
    <title>icon-filter-white</title>
    <desc>Created with Sketch.</desc>
    <g id="icon-filter-white" stroke="none" stroke-width="1" fill="none" fill-rule="evenodd">
        <path d="M10.1827161,9.39539618 L10.1544236,13.6656169 C10.153448,13.8057787 10.0900337,13.9378106 9.98174156,14.0259402 L7.62468118,15.9465801 C7.47281209,16.0701567 7.24452064,15.9660922 7.23866702,15.7699957 L7.04744854,9.38889215 C7.04452173,9.28482767 7.00647316,9.18466561 6.94013205,9.10401564 L0.676751403,1.54145505 C0.0842342923,0.819182547 -0.415600394,0.0152844699 0.518378278,0.000325201488 C0.525532711,0 8.33752284,0 8.34467728,0 L8.88191013,0 C8.88906457,0 16.7010547,0 16.7082091,0.000325201488 C17.6421878,0.0152844699 17.1423531,0.819182547 16.549836,1.54145505 L10.2903578,9.09946282 C10.2214151,9.1827144 10.1833665,9.28710408 10.1827161,9.39539618" id="Fill-1" fill="#FFFFFF"></path>
    </g>
</svg>