<?xml version="1.0" encoding="UTF-8"?>
<svg width="18px" height="7px" viewBox="0 0 18 7" version="1.1" xmlns="http://www.w3.org/2000/svg" xmlns:xlink="http://www.w3.org/1999/xlink">
    <!-- Generator: Sketch 45.2 (43514) - http://www.bohemiancoding.com/sketch -->
    <title>XLS</title>
    <desc>Created with Sketch.</desc>
    <defs></defs>
    <g id="Guidelines" stroke="none" stroke-width="1" fill="none" fill-rule="evenodd">
        <g id="Icons" transform="translate(-920.000000, -520.000000)" fill="#FFFFFF">
            <path d="M926.626265,526.882353 L924.385499,523.39316 L926.4342,520.106703 L924.524213,520.106703 L923.307798,522.347469 L922.102052,520.106703 L920.202736,520.106703 L922.283447,523.40383 L920,526.882353 L921.952668,526.882353 L923.318468,524.438851 L924.673598,526.882353 L926.626265,526.882353 Z M931.998358,526.882353 L931.998358,525.516553 L929.373461,525.516553 L929.373461,520.106703 L927.687551,520.106703 L927.687551,526.882353 L931.998358,526.882353 Z M938,520.864295 C937.583858,520.490834 936.65554,520 935.588509,520 C934.681532,520 934.201368,520.202736 933.795896,520.480164 C933.390424,520.768263 932.984952,521.301778 932.984952,522.03803 C932.984952,522.774282 933.294391,523.211765 933.625171,523.478523 C933.966621,523.755951 934.404104,523.916005 934.553488,523.969357 C934.724213,524.033379 935.407114,524.268126 935.64186,524.353488 C935.876607,524.438851 936.31409,524.588235 936.31409,524.983037 C936.31409,525.367168 935.983311,525.580575 935.311081,525.580575 C934.649521,525.580575 933.859918,525.175103 933.433105,524.801642 L932.664843,526.028728 C933.273051,526.604925 934.297401,526.989056 935.28974,526.989056 C936.271409,526.989056 936.847606,526.711628 937.253078,526.380848 C937.66922,526.039398 938,525.527223 938,524.790971 C938,524.05472 937.679891,523.649248 937.370451,523.39316 C937.061012,523.126402 936.687551,522.977018 936.506156,522.902326 C936.29275,522.827633 935.471135,522.560876 935.268399,522.475513 C935.065663,522.400821 934.649521,522.262107 934.649521,521.877975 C934.649521,521.504514 934.95896,521.323119 935.577839,521.323119 C936.186047,521.323119 936.954309,521.675239 937.349111,522.02736 L938,520.864295 Z" id="XLS"></path>
        </g>
    </g>
</svg>