<svg xmlns="http://www.w3.org/2000/svg" viewBox="0 0 18 6.99"><defs><style>.cls-1{fill:#fff;}</style></defs><title>Asset 1</title><g id="Layer_2" data-name="Layer 2"><g id="Layer_1-2" data-name="Layer 1"><g id="Layer_2-2" data-name="Layer 2"><g id="Layer_1-2-2" data-name="Layer 1-2"><g id="Guidelines"><g id="Icons"><path id="PDF" class="cls-1" d="M5.05,2.35A2.16,2.16,0,0,1,4.3,4.16a3.24,3.24,0,0,1-1.84.53H1.65V7H0V0H2.46A3.08,3.08,0,0,1,4.3.54,2.16,2.16,0,0,1,5.05,2.35Zm-1.65,0a.94.94,0,0,0-.35-.82,1.18,1.18,0,0,0-.83-.2H1.65V3.38h.57A1.19,1.19,0,0,0,3,3.17a.94.94,0,0,0,.41-.82Zm8.9,1.14a3.48,3.48,0,0,1-1.05,2.68A3.45,3.45,0,0,1,8.79,7H6.4V0H8.79a3.46,3.46,0,0,1,2.46.81A3.52,3.52,0,0,1,12.3,3.49Zm-1.69,0a2.29,2.29,0,0,0-.52-1.62,1.73,1.73,0,0,0-1.34-.5H8V5.59h.7A1.74,1.74,0,0,0,10,5.09a2.28,2.28,0,0,0,.57-1.61ZM18,1.38V0H13.7V7h1.65V4.31h2.44V2.93H15.34V1.36Z"/></g></g></g></g></g></g></svg>