<?xml version="1.0" encoding="UTF-8"?>
<svg width="23px" height="22px" viewBox="0 0 23 22" version="1.1" xmlns="http://www.w3.org/2000/svg" xmlns:xlink="http://www.w3.org/1999/xlink">
    <!-- Generator: Sketch 53.2 (72643) - https://sketchapp.com -->
    <title>Group 2</title>
    <desc>Created with Sketch.</desc>
    <g id="Page-1" stroke="none" stroke-width="1" fill="none" fill-rule="evenodd">
        <g id="DMUI-78:-Reverse-Contract-Notification" transform="translate(-73.000000, -693.000000)">
            <g id="column-cell-copy-28" transform="translate(56.000000, 683.000000)">
                <g id="Group-2" transform="translate(16.000000, 9.500000)">
                    <g id="icon_sorting-copy" transform="translate(12.281860, 10.500000) rotate(-180.000000) translate(-12.281860, -10.500000) translate(0.281860, 0.000000)" fill="#BA0E10" stroke="#BA0E10" stroke-linecap="round" stroke-linejoin="round">
                        <path d="M9.80895582,2.83296477 C10.8145533,1.05712233 12.6296045,1.06117942 13.6329046,2.83296477 L22.1558721,17.8841625 C23.1618804,19.6607305 22.2441875,21.2386586 20.1969067,21.2386586 L3.2449538,21.2386586 C1.20810029,21.2386586 0.28528673,19.6513591 1.28598841,17.8841625 L9.80895582,2.83296477 Z" id="Triangle" transform="translate(11.720930, 10.604938) rotate(180.000000) translate(-11.720930, -10.604938) "></path>
                    </g>
                    <path d="M13.4969767,9.20875753 C13.4969767,8.56919428 13.1604053,8.19379845 12.5593848,8.19379845 C11.922303,8.19379845 11.4895682,8.68042267 11.4895682,9.36169657 C11.4895682,10.0012598 11.8261397,10.3766557 12.4271602,10.3766557 C13.064242,10.3766557 13.4969767,9.89003144 13.4969767,9.20875753 Z M13.1844461,11.0718331 L11.393405,11.0718331 L11.1365116,17.6899225 L12.9395732,17.6899225 L13.1844461,11.0718331 Z" id="i" fill="#FFFFFF" transform="translate(12.316744, 12.941860) scale(-1, -1) translate(-12.316744, -12.941860) "></path>
                </g>
            </g>
        </g>
    </g>
</svg>