<?xml version="1.0" encoding="UTF-8" standalone="no"?>
<svg width="12px" height="12px" viewBox="0 0 12 12" version="1.1" xmlns="http://www.w3.org/2000/svg" xmlns:xlink="http://www.w3.org/1999/xlink">
    <!-- Generator: Sketch 48.2 (47327) - http://www.bohemiancoding.com/sketch -->
    <title>Info-circle-12px</title>
    <desc>Created with Sketch.</desc>
    <defs></defs>
    <g id="DataManager-Set" stroke="none" stroke-width="1" fill="none" fill-rule="evenodd">
        <g id="Info">
            <path d="M6,0 C2.7,0 0,2.7 0,6 C0,9.3 2.7,12 6,12 C9.3,12 12,9.3 12,6 C12,2.7 9.3,0 6,0 Z M6,10.5 C3.525,10.5 1.5,8.475 1.5,6 C1.5,3.525 3.525,1.5 6,1.5 C8.475,1.5 10.5,3.525 10.5,6 C10.5,8.475 8.475,10.5 6,10.5 Z" id="Shape" fill="#444444" fill-rule="nonzero"></path>
            <g id="info-circle_24px_stroke-copy-2" stroke-width="1" fill-rule="evenodd" transform="translate(4.500000, 2.000000)" stroke="#343434">
                <g id="Group-4" transform="translate(0.000000, 0.400000)" stroke-width="1.5">
                    <polyline id="Shape" points="0 3.2 1.5 3.2 1.5 6.4"></polyline>
                    <path d="M0,6.4 L3,6.4" id="Shape"></path>
                    <path d="M1.5,0 L1.5,1.6" id="Shape"></path>
                </g>
            </g>
        </g>
    </g>
</svg>