<svg xmlns="http://www.w3.org/2000/svg" viewBox="0 0 16 16"><defs><style>.cls-1{fill:#fff;}</style></defs><title>Asset 1</title><g id="Layer_2" data-name="Layer 2"><g id="Layer_1-2" data-name="Layer 1"><g id="Guidelines"><g id="Icons"><g id="Group"><polygon id="Fill-1" class="cls-1" points="16 14.91 12.65 11.56 15.25 11.56 15.25 10.01 10.01 10.01 10.01 15.25 11.56 15.25 11.56 12.65 14.91 16 16 14.91"/><polygon id="Fill-2" class="cls-1" points="15.25 6 15.25 4.45 12.65 4.45 16 1.09 14.91 0 11.56 3.35 11.56 0.75 10.01 0.75 10.01 6 15.25 6"/><polygon id="Fill-3" class="cls-1" points="4.45 12.65 4.45 15.25 6 15.25 6 10.01 0.75 10.01 0.75 11.56 3.35 11.56 0 14.91 1.09 16 4.45 12.65"/><polygon id="Fill-4" class="cls-1" points="6 6 6 0.75 4.45 0.75 4.45 3.35 1.09 0 0 1.09 3.35 4.45 0.75 4.45 0.75 6 6 6"/></g></g></g></g></g></svg>