<svg xmlns="http://www.w3.org/2000/svg" viewBox="0 0 16 16"><defs><style>.cls-1{fill:#fff;}</style></defs><title>Asset 1</title><g id="Layer_2" data-name="Layer 2"><g id="Layer_1-2" data-name="Layer 1"><g id="Guidelines"><g id="Icons"><g id="Group"><polygon id="Fill-1" class="cls-1" points="10.01 11.1 13.36 14.45 10.76 14.45 10.76 16 16 16 16 10.76 14.45 10.76 14.45 13.36 11.1 10.01 10.01 11.1"/><polygon id="Fill-2" class="cls-1" points="10.76 0 10.76 1.55 13.36 1.55 10.01 4.9 11.1 6 14.45 2.64 14.45 5.25 16 5.25 16 0 10.76 0"/><polygon id="Fill-3" class="cls-1" points="1.55 13.36 1.55 10.76 0 10.76 0 16 5.25 16 5.25 14.45 2.64 14.45 6 11.1 4.9 10.01 1.55 13.36"/><polygon id="Fill-4" class="cls-1" points="0 0 0 5.25 1.55 5.25 1.55 2.64 4.9 6 6 4.9 2.64 1.55 5.25 1.55 5.25 0 0 0"/></g></g></g></g></g></svg>