<svg xmlns="http://www.w3.org/2000/svg" width="12.75" height="17" viewBox="0 0 12.75 17"><defs><style>.a{fill:#d8e1e9;}</style></defs><path class="a" d="M7.438,4.516V0H.8A.8.8,0,0,0,0,.8V16.2a.8.8,0,0,0,.8.8H11.953a.8.8,0,0,0,.8-.8V5.313H8.234A.8.8,0,0,1,7.438,4.516Zm2.538,7.018-3.2,3.178a.566.566,0,0,1-.8,0l-3.2-3.178a.531.531,0,0,1,.374-.908H5.313V7.969a.531.531,0,0,1,.531-.531H6.906a.531.531,0,0,1,.531.531v2.656H9.6A.531.531,0,0,1,9.976,11.533Zm2.542-8.047L9.267.232A.8.8,0,0,0,8.7,0H8.5V4.25h4.25v-.2A.794.794,0,0,0,12.518,3.486Z"/></svg>