<svg xmlns="http://www.w3.org/2000/svg" width="48" height="54.86" viewBox="0 0 48 54.86">
    <path
        d="M34.221,34.351,24,44.572,13.779,34.351A14.368,14.368,0,0,0,0,48.687v1.029a5.144,5.144,0,0,0,5.143,5.143H42.857A5.144,5.144,0,0,0,48,49.715V48.687A14.368,14.368,0,0,0,34.221,34.351ZM1.457,8.551l.686.161v6.257a2.475,2.475,0,0,0-.1,4.286L.375,25.929c-.182.739.225,1.5.814,1.5H5.668c.589,0,1-.761.814-1.5L4.811,19.254a2.475,2.475,0,0,0-.1-4.286V9.333l7.071,1.7a13.689,13.689,0,1,0,25.929,6.107,13.47,13.47,0,0,0-1.5-6.107L46.532,8.551a1.7,1.7,0,0,0,0-3.375L26.132.247a9.2,9.2,0,0,0-4.254,0L1.457,5.165a1.712,1.712,0,0,0,0,3.386Z"
        transform="translate(0 0.002)" fill="#FFF"
    />
</svg>